<!DOCTYPE svg PUBLIC "-//W3C//DTD SVG 1.1//EN" "http://www.w3.org/Graphics/SVG/1.1/DTD/svg11.dtd">
<!-- Uploaded to: SVG Repo, www.svgrepo.com, Transformed by: SVG Repo Mixer Tools -->
<svg width="800px" height="800px" viewBox="0 0 512 512" id="Layer_1" version="1.1" xml:space="preserve" xmlns="http://www.w3.org/2000/svg" xmlns:xlink="http://www.w3.org/1999/xlink" fill="#000" stroke="#000">
<g id="SVGRepo_bgCarrier" stroke-width="0"/>
<g id="SVGRepo_tracerCarrier" stroke-linecap="round" stroke-linejoin="round"/>
<g id="SVGRepo_iconCarrier"> <style type="text/css"> .st0{fill:#00a5d6;} </style> <g> <path class="st0" d="M288,347.9l-4.4-56.4l22.1-22.1l16.1-16.1l22.3-22.3c-1.6-0.5-3.1-1.1-4.6-1.8c-0.6-0.3-1.2-0.6-1.8-0.9 c-0.6-0.3-1.1-0.6-1.7-1c-2.5-1.6-4.7-3.5-6.7-5.6c-0.3-0.4-0.7-0.8-1-1.1c-0.5-0.6-1-1.3-1.5-1.9c-0.4-0.5-0.7-1-1.1-1.6 c-1.4-2.2-2.5-4.6-3.4-7.1v0L280,245.3l-3.6-46.5h0v0c-0.3,0.2-0.5,0.4-0.8,0.6l-4.5,2.7c-0.3,0.2-0.6,0.3-0.9,0.5 c-0.3,0.2-0.6,0.3-1,0.4c-0.3,0.1-0.6,0.3-1,0.4c-0.3,0.1-0.6,0.3-1,0.4c-0.6,0.2-1.3,0.4-1.9,0.6c-0.3,0.1-0.7,0.2-1,0.3 c-0.7,0.2-1.4,0.3-2.1,0.5c-0.3,0.1-0.7,0.1-1,0.2c-1.1,0.2-2.2,0.3-3.4,0.3c-0.5,0-0.9,0-1.4,0c-1.1,0-2.1,0-3.2-0.2 c-1-0.1-2.1-0.3-3.1-0.5c-0.2,0-0.4-0.1-0.7-0.1c-2.9-0.6-5.8-1.6-8.4-3c-0.5-0.3-1-0.6-1.5-0.9c0,0,0,0-0.1,0 c-0.8-0.5-1.6-1-2.4-1.5c-0.3-0.2-0.5-0.3-0.7-0.5c0,0,0,0,0,0v0l-3.6,46.5l-6.4-5.4L187.9,208l-2.5,6.4c-0.1,0.3-0.3,0.6-0.5,0.9 l-1.5,2.5c-0.2,0.3-0.4,0.5-0.6,0.8l-2.4,3c-0.4,0.5-0.9,1-1.4,1.5c-0.4,0.4-0.8,0.8-1.2,1.1c-0.3,0.3-0.6,0.5-0.9,0.7 c-0.1,0.1-0.3,0.2-0.4,0.4c-2.6,2.1-5.6,3.8-8.8,5h0l27.3,27.3c1.8,2.8,4.3,5.2,7.1,7.1l26.9,26.9l-4.4,56.1l-1.3,17.3L214.1,485 h84.6l-9.5-122L288,347.9z"/> <path class="st0" d="M391.7,337.6c-0.3,0.3-0.6,0.6-0.9,0.9c-10.3,10.3-24,16-38.5,16c-2.1,0-4.3-0.1-6.4-0.4l-1,12.8l-7,90.4H401 l-7.1-91.1L391.7,337.6z"/> <path class="st0" d="M434.9,267.6c-7.6-2.3-13.7-8.2-16.2-15.7l-1.5,1.3v0c-0.5,3.1-1.3,6.2-2.4,9.2c-2.5,6.8-6.5,13-11.6,18 c1.9,5,3.1,10.2,3.5,15.6L434.9,267.6z"/> <path class="st0" d="M501,247.2c0-15-10.9-27.4-25.3-29.8c1.8-6,1.5-12.6-1.3-18.6c-1.6-3.6-4-6.6-6.8-9 c6.2-11.5,4.5-26.1-5.2-35.7c-10.6-10.6-27.1-11.7-38.9-3.2c-2.5-4.5-6.3-8.4-11.1-10.9c1.3,4.5,2,9.3,2,14 c19.3,8.5,32.4,27.8,32.4,49.8c0,14.9-6.2,28.8-16.4,38.8l1.7,5c1.1,3.2,3.7,5.8,7,6.8l22.4,6.8l-57.1,57.1l2.9,36.8 c3.5-0.1,7.1-0.9,10.5-2.4c3.6-1.6,6.6-4,9-6.8c11.5,6.2,26.1,4.5,35.8-5.2c10.6-10.6,11.7-27.1,3.2-38.9c5.5-3,9.9-7.8,12.2-14.1 c1.4-3.7,1.9-7.5,1.6-11.2C491.9,272.5,501,260.9,501,247.2z"/> <path class="st0" d="M105.4,295.4c0.3-4,1.1-7.9,2.3-11.8c-1.7-2.2-3.1-4.5-4.4-7c-0.3-0.6-0.7-1.4-1-2.1 c-2.8-6.1-4.3-12.7-4.5-19.3l-5-4.2h0l-0.6-0.5c0,0,0,0.1,0,0.1c-2.1,7.6-7.7,13.7-14.9,16.5L105.4,295.4z"/> <path class="st0" d="M166.7,354c-2.3,0.3-4.7,0.5-7,0.5c-4.4,0-8.8-0.5-13-1.6c-1.7-0.4-3.4-0.9-5.1-1.5c-7.6-2.7-14.5-7-20.4-12.9 c-0.1-0.1-0.2-0.2-0.3-0.3l-2.2,28.8l-7,90.4h63.2l-7.1-91.1L166.7,354z"/> <path class="st0" d="M403.2,251.7c0.1-0.4,0.1-0.7,0.2-1.1c0-0.1,0-0.1,0-0.2c0,0,0-0.1,0-0.1c0,0,0-0.1,0-0.1 c0.1-0.4,0.1-0.8,0.1-1.2c0.1-0.4,0.1-0.8,0.1-1.3c0-0.1,0-0.2,0-0.3c0-0.4,0-0.8,0-1.3l9.8-8.1c0,0,0,0,0,0c0,0,0.1,0,0.1,0 c0.3-0.2,0.6-0.4,0.8-0.5c0.1-0.1,0.3-0.2,0.4-0.3c0.3-0.2,0.5-0.4,0.8-0.5c0.1-0.1,0.3-0.2,0.4-0.3c0.3-0.2,0.6-0.4,0.9-0.7 c0.3-0.2,0.6-0.5,0.9-0.8c0.2-0.1,0.3-0.3,0.5-0.4c0.2-0.2,0.5-0.4,0.7-0.6c0.7-0.6,1.4-1.3,2.1-2c0.3-0.3,0.6-0.6,0.9-1l0,0 c0,0,0,0,0,0l0,0v0c0.3-0.4,0.7-0.8,1-1.1c0.1-0.1,0.1-0.2,0.2-0.3c0.8-0.9,1.5-1.9,2.2-2.9c0.4-0.5,0.7-1,1-1.5 c0.3-0.5,0.6-0.9,0.8-1.4c0.1-0.1,0.2-0.3,0.2-0.4c0.2-0.4,0.4-0.7,0.6-1.1c0,0,0.1-0.1,0.1-0.1c0.1-0.1,0.1-0.2,0.2-0.3 c0,0,0,0,0-0.1c0,0,0.1-0.1,0.1-0.1c0.2-0.3,0.3-0.6,0.5-1c0.1-0.2,0.2-0.4,0.3-0.6c0.2-0.4,0.4-0.8,0.5-1.3 c0.1-0.2,0.2-0.4,0.3-0.7c0.2-0.4,0.3-0.8,0.5-1.3c0,0,0,0,0-0.1c0.2-0.5,0.3-0.9,0.4-1.4c0.2-0.6,0.3-1.2,0.5-1.8 c0.1-0.5,0.2-0.9,0.3-1.3c0-0.2,0.1-0.3,0.1-0.5c0.1-0.4,0.2-0.9,0.3-1.4v0c0.1-0.6,0.2-1.1,0.2-1.7c0-0.4,0.1-0.8,0.1-1.2 c0,0,0-0.1,0-0.2c0-0.2,0.1-0.5,0.1-0.7c0-0.1,0-0.1,0-0.2c0-0.3,0-0.6,0.1-0.8c0-0.1,0-0.2,0-0.3c0-0.6,0-1.1,0-1.7 c0-20.1-14.6-36.7-33.8-39.9c2.4-8,2-16.8-1.8-25c-2.2-4.8-5.4-8.9-9.1-12.1c0.6-1.1,1.1-2.2,1.6-3.4c6.3-14.8,3.4-32.5-8.6-44.5 c-14.2-14.2-36.3-15.7-52.2-4.3c-4-7.3-10.5-13.3-18.9-16.4c-5-1.8-10.1-2.5-15-2.1C289.8,39.2,274.3,27,256,27 c-20.1,0-36.8,14.6-39.9,33.8c-8-2.4-16.8-2-25,1.8c-4.8,2.2-8.9,5.4-12.1,9.1c-15.4-8.3-34.9-6-47.9,7c-12,12-14.9,29.8-8.6,44.5 c1.1,2.6,2.6,5.2,4.3,7.6c-7.3,4-13.3,10.5-16.4,18.9c-1.8,5-2.5,10.1-2.1,15c-16.7,5-28.9,20.5-28.9,38.8c0,0.6,0,1.2,0,1.8 c0,0.6,0.1,1.3,0.1,1.9c0,0.4,0.1,0.9,0.1,1.3c0,0,0,0.1,0,0.1c0,0.2,0,0.3,0.1,0.5c0.1,0.9,0.3,1.8,0.4,2.6c0,0.2,0.1,0.4,0.1,0.7 c0.3,1.1,0.5,2.2,0.9,3.3c0.2,0.6,0.4,1.1,0.6,1.6c0.2,0.5,0.4,1.1,0.6,1.6c0.6,1.6,1.4,3.1,2.2,4.6c0.3,0.5,0.5,0.9,0.8,1.4 c0,0,0,0.1,0.1,0.1c0.3,0.5,0.6,0.9,0.9,1.3c0.3,0.5,0.7,0.9,1,1.4c0.3,0.4,0.7,0.9,1,1.3c0,0,0,0,0,0c0.4,0.5,0.8,1,1.3,1.5 c0,0,0,0,0,0c0,0,0,0,0,0c0.3,0.4,0.6,0.7,1,1l0.1,0.1c0.1,0.1,0.3,0.3,0.4,0.4c0.2,0.2,0.4,0.4,0.6,0.6L92,233 c0,0,0.1,0.1,0.1,0.1c0.2,0.2,0.4,0.4,0.6,0.5c0.1,0.1,0.2,0.2,0.3,0.3c0.2,0.2,0.4,0.4,0.7,0.6c0.1,0.1,0.3,0.2,0.4,0.3 c0.1,0.1,0.2,0.1,0.3,0.2c0.3,0.2,0.6,0.5,0.9,0.7c0.1,0,0.1,0.1,0.2,0.2c0,0,0.1,0.1,0.1,0.1c0.4,0.3,0.8,0.6,1.2,0.9 c0.1,0.1,0.3,0.2,0.4,0.3c0.4,0.3,0.7,0.5,1.1,0.7c0.5,0.3,0.9,0.6,1.4,0.9c0.3,0.1,0.5,0.3,0.8,0.4c0,0,0,0,0,0l0,0l11.6,9.7 c-0.6,4-0.4,8.2,0.5,12.4c0.2,0.9,0.4,1.7,0.6,2.5c0.1,0.2,0.1,0.4,0.2,0.6c0.1,0.2,0.1,0.4,0.2,0.6c0.1,0.3,0.2,0.6,0.3,0.9 c0.2,0.6,0.5,1.2,0.7,1.8c0.1,0.3,0.3,0.6,0.4,0.9c0.2,0.5,0.5,1,0.8,1.5c2.2,4.1,5,7.7,8.4,10.6c-5,9.2-6.1,20-3.4,30l2.2,2.2 l-0.3,3.3c2,4.5,4.8,8.8,8.5,12.5c3.3,3.3,7.1,6,11.1,7.9c7.3,3.5,15.5,4.7,23.4,3.5c6.2-0.9,12.3-3.3,17.6-7.1 c3.4,6.2,8.6,11.4,15.2,14.8c0.7-0.6,1.3-1.3,1.9-2c3.2,1.8,6.7,2.9,10.3,3.3l4.1-52.2l-71.9-71.9l20.1-7.7c5.7-2.2,10-7,11.5-12.8 l5.6-21.2l40.8,34l3.5-45.2l20.5,15.7c2.4,1.8,5,3,7.9,3.5l0.1,0c1.1,0.2,2.3,0.3,3.5,0.3c0.9,0,1.8-0.1,2.8-0.2 c3.2-0.5,6.2-1.7,8.8-3.7l20.5-15.7l3.5,45.2l37.3-31l6.5,19.4c2,5.8,6.6,10.3,12.5,12.1l22.4,6.8l-38.8,38.8l-16.1,16.1 l-17.5,17.5l3.9,49.9l0.2,2.1c1.4-0.2,2.7-0.5,4-0.9c3.4,0,6.9-0.5,10.3-1.6c1.5-0.5,3-1,4.4-1.7c4.8-2.2,8.9-5.4,12.1-9.1 c4.4,2.4,9.1,3.9,13.9,4.5c12.1,1.6,24.7-2.2,34-11.5c4-4,7-8.7,9-13.7v0c0.5-1.1,0.9-2.3,1.2-3.5c3.5-11.7,1.5-24.7-5.9-35 c0.5-0.3,1.1-0.6,1.6-1c6.6-4,11.9-10.2,14.8-18c0.1-0.3,0.2-0.6,0.3-1c0,0,0,0,0,0c0.1-0.3,0.2-0.6,0.3-1c0.1-0.3,0.2-0.7,0.3-1.1 c0.1-0.4,0.2-0.8,0.3-1.2c0.1-0.4,0.2-0.8,0.3-1.2C403.2,251.9,403.2,251.8,403.2,251.7z"/> <path class="st0" d="M52,261.7l20.1-7.7c3.2-1.2,5.6-3.9,6.4-7.1l1.5-5.8c-9.2-9.8-14.7-23-14.7-37.4c0-20.4,11.6-39,29.3-48.3 c0.5-3.5,1.4-7,2.6-10.4c0.6-1.6,1.3-3.2,2-4.7c-1.6,0.4-3.3,1-4.9,1.7c-3.6,1.7-6.6,4-9,6.8c-11.5-6.2-26.1-4.4-35.8,5.2 c-10.6,10.6-11.7,27.1-3.2,38.9c-5.5,3-9.9,7.8-12.3,14.1c-1.4,3.7-1.9,7.5-1.6,11.2C20.1,222,11,233.5,11,247.2 c0,15,10.9,27.5,25.3,29.8c-1.8,6-1.5,12.6,1.3,18.6c1.6,3.6,4,6.6,6.8,9c-6.2,11.4-4.5,26.1,5.2,35.8 c10.6,10.6,27.1,11.7,38.9,3.2c3,5.5,7.9,9.9,14.1,12.2c0.9,0.3,1.8,0.6,2.7,0.8l3-38.3l0-0.3v0l-0.2-0.2L52,261.7z"/> </g> </g>
</svg>